# MagicaVoxel @ Ephtracy

# material
mtllib InfoSign01.mtl
usemtl palette

# normals
vn -1 0 0
vn 1 0 0
vn 0 0 1
vn 0 0 -1
vn 0 -1 0
vn 0 1 0

# texcoords
vt 0.939453 0.5
vt 0.943359 0.5
vt 0.986328 0.5
vt 0.990234 0.5

# verts
v -10 0 1.5
v -10 0 -1.5
v -10 3 1.5
v -10 3 -1.5
v -9 3 0.5
v -9 3 -0.5
v -9 24 0.5
v -9 24 -0.5
v -6 18 0.5
v -6 18 -0.5
v -6 21 0.5
v -6 21 -0.5
v -6 22 0.5
v -6 22 -0.5
v -6 23 0.5
v -6 23 -0.5
v -6 24 0.5
v -6 24 -0.5
v -6 27 0.5
v -6 27 -0.5
v -8 3 0.5
v -8 3 -0.5
v -8 21 0.5
v -8 21 -0.5
v -8 22 0.5
v -8 22 -0.5
v -8 23 0.5
v -8 23 -0.5
v -7 0 1.5
v -7 0 -1.5
v -7 3 1.5
v -7 3 -1.5
v 10 18 0.5
v 10 18 -0.5
v 10 27 0.5
v 10 27 -0.5
v -10 0 1.5
v -10 3 1.5
v -7 0 1.5
v -7 3 1.5
v -9 3 0.5
v -9 24 0.5
v -8 3 0.5
v -8 21 0.5
v -8 22 0.5
v -8 23 0.5
v -6 18 0.5
v -6 21 0.5
v -6 22 0.5
v -6 23 0.5
v -6 24 0.5
v -6 27 0.5
v -5 19 0.5
v -5 26 0.5
v 9 19 0.5
v 9 26 0.5
v 10 18 0.5
v 10 27 0.5
v -9 3 -0.5
v -9 24 -0.5
v -8 3 -0.5
v -8 21 -0.5
v -8 22 -0.5
v -8 23 -0.5
v -6 18 -0.5
v -6 21 -0.5
v -6 22 -0.5
v -6 23 -0.5
v -6 24 -0.5
v -6 27 -0.5
v -5 19 -0.5
v -5 26 -0.5
v 9 19 -0.5
v 9 26 -0.5
v 10 18 -0.5
v 10 27 -0.5
v -10 0 -1.5
v -10 3 -1.5
v -7 0 -1.5
v -7 3 -1.5
v -10 0 1.5
v -7 0 1.5
v -10 0 -1.5
v -7 0 -1.5
v -6 18 0.5
v 10 18 0.5
v -6 18 -0.5
v 10 18 -0.5
v -8 21 0.5
v -6 21 0.5
v -8 21 -0.5
v -6 21 -0.5
v -8 23 0.5
v -6 23 0.5
v -8 23 -0.5
v -6 23 -0.5
v -10 3 1.5
v -7 3 1.5
v -9 3 0.5
v -8 3 0.5
v -9 3 -0.5
v -8 3 -0.5
v -10 3 -1.5
v -7 3 -1.5
v -8 22 0.5
v -6 22 0.5
v -8 22 -0.5
v -6 22 -0.5
v -9 24 0.5
v -6 24 0.5
v -9 24 -0.5
v -6 24 -0.5
v -6 27 0.5
v 10 27 0.5
v -6 27 -0.5
v 10 27 -0.5

# faces
f 3/4/1 2/4/1 1/4/1
f 4/4/1 2/4/1 3/4/1
f 7/4/1 6/4/1 5/4/1
f 8/4/1 6/4/1 7/4/1
f 11/1/1 10/1/1 9/1/1
f 12/1/1 10/1/1 11/1/1
f 15/1/1 14/1/1 13/1/1
f 16/1/1 14/1/1 15/1/1
f 19/1/1 18/1/1 17/1/1
f 20/1/1 18/1/1 19/1/1
f 21/4/2 22/4/2 23/4/2
f 23/4/2 22/4/2 24/4/2
f 25/4/2 26/4/2 27/4/2
f 27/4/2 26/4/2 28/4/2
f 29/4/2 30/4/2 31/4/2
f 31/4/2 30/4/2 32/4/2
f 33/1/2 34/1/2 35/1/2
f 35/1/2 34/1/2 36/1/2
f 39/4/3 38/4/3 37/4/3
f 40/4/3 38/4/3 39/4/3
f 43/4/3 42/4/3 41/4/3
f 44/4/3 42/4/3 43/4/3
f 45/4/3 42/4/3 44/4/3
f 46/4/3 42/4/3 45/4/3
f 48/4/3 45/4/3 44/4/3
f 49/4/3 45/4/3 48/4/3
f 50/4/3 42/4/3 46/4/3
f 51/4/3 42/4/3 50/4/3
f 53/1/3 49/1/3 48/1/3
f 53/1/3 52/1/3 51/1/3
f 53/1/3 51/1/3 50/1/3
f 53/1/3 50/1/3 49/1/3
f 53/1/3 48/1/3 47/1/3
f 54/1/3 52/1/3 53/1/3
f 55/1/3 53/1/3 47/1/3
f 55/2/3 54/2/3 53/2/3
f 56/1/3 52/1/3 54/1/3
f 56/2/3 54/2/3 55/2/3
f 57/1/3 55/1/3 47/1/3
f 57/1/3 56/1/3 55/1/3
f 58/1/3 52/1/3 56/1/3
f 58/1/3 56/1/3 57/1/3
f 59/4/4 60/4/4 61/4/4
f 61/4/4 60/4/4 62/4/4
f 62/4/4 60/4/4 63/4/4
f 63/4/4 60/4/4 64/4/4
f 62/4/4 63/4/4 66/4/4
f 66/4/4 63/4/4 67/4/4
f 64/4/4 60/4/4 68/4/4
f 68/4/4 60/4/4 69/4/4
f 66/1/4 67/1/4 71/1/4
f 69/1/4 70/1/4 71/1/4
f 68/1/4 69/1/4 71/1/4
f 67/1/4 68/1/4 71/1/4
f 65/1/4 66/1/4 71/1/4
f 71/1/4 70/1/4 72/1/4
f 65/1/4 71/1/4 73/1/4
f 71/2/4 72/2/4 73/2/4
f 72/1/4 70/1/4 74/1/4
f 73/2/4 72/2/4 74/2/4
f 65/1/4 73/1/4 75/1/4
f 73/1/4 74/1/4 75/1/4
f 74/1/4 70/1/4 76/1/4
f 75/1/4 74/1/4 76/1/4
f 77/4/4 78/4/4 79/4/4
f 79/4/4 78/4/4 80/4/4
f 83/4/5 82/4/5 81/4/5
f 84/4/5 82/4/5 83/4/5
f 87/1/5 86/1/5 85/1/5
f 88/1/5 86/1/5 87/1/5
f 91/4/5 90/4/5 89/4/5
f 92/4/5 90/4/5 91/4/5
f 95/4/5 94/4/5 93/4/5
f 96/4/5 94/4/5 95/4/5
f 97/4/6 98/4/6 99/4/6
f 99/4/6 98/4/6 100/4/6
f 97/4/6 99/4/6 101/4/6
f 100/4/6 98/4/6 102/4/6
f 97/4/6 101/4/6 103/4/6
f 101/4/6 102/4/6 103/4/6
f 102/4/6 98/4/6 104/4/6
f 103/4/6 102/4/6 104/4/6
f 105/4/6 106/4/6 107/4/6
f 107/4/6 106/4/6 108/4/6
f 109/4/6 110/4/6 111/4/6
f 111/4/6 110/4/6 112/4/6
f 113/1/6 114/1/6 115/1/6
f 115/1/6 114/1/6 116/1/6
