# MagicaVoxel @ Ephtracy

# material
mtllib Rock03.mtl
usemtl palette

# normals
vn -1 0 0
vn 1 0 0
vn 0 0 1
vn 0 0 -1
vn 0 -1 0
vn 0 1 0

# texcoords
vt 0.970703 0.5
vt 0.990234 0.5

# verts
v -8 0 5
v -8 0 1
v -8 0 -1
v -8 0 -5
v -8 2 5
v -8 2 1
v -8 2 -1
v -8 2 -5
v -7 0 7
v -7 0 5
v -7 0 1
v -7 0 -1
v -7 0 -5
v -7 0 -7
v -7 1 7
v -7 1 6
v -7 1 -6
v -7 1 -7
v -7 2 5
v -7 2 1
v -7 2 -1
v -7 2 -5
v -7 3 6
v -7 3 4
v -7 3 2
v -7 3 -2
v -7 3 -4
v -7 3 -6
v -7 4 4
v -7 4 2
v -7 4 -2
v -7 4 -4
v -6 1 7
v -6 1 6
v -6 1 -6
v -6 1 -7
v -6 3 7
v -6 3 6
v -6 3 4
v -6 3 2
v -6 3 -2
v -6 3 -4
v -6 3 -6
v -6 3 -7
v -6 4 6
v -6 4 4
v -6 4 2
v -6 4 -2
v -6 4 -4
v -6 4 -6
v -5 0 8
v -5 0 7
v -5 0 -7
v -5 0 -8
v -5 2 8
v -5 2 7
v -5 2 -7
v -5 2 -8
v -5 4 5
v -5 4 -5
v -5 5 5
v -5 5 2
v -5 5 -2
v -5 5 -5
v -5 6 2
v -5 6 -2
v -4 3 7
v -4 3 6
v -4 3 -6
v -4 3 -7
v -4 4 7
v -4 4 6
v -4 4 -6
v -4 4 -7
v -4 5 3
v -4 5 2
v -4 5 -2
v -4 5 -3
v -4 6 3
v -4 6 2
v -4 6 1
v -4 6 -1
v -4 6 -2
v -4 6 -3
v -4 7 3
v -4 7 1
v -4 7 -1
v -4 7 -3
v -4 8 1
v -4 8 -1
v -3 5 4
v -3 5 3
v -3 5 -3
v -3 5 -4
v -3 6 4
v -3 6 3
v -3 6 -3
v -3 6 -4
v -3 7 4
v -3 7 3
v -3 7 1
v -3 7 -1
v -3 7 -3
v -3 7 -4
v -3 8 3
v -3 8 1
v -3 8 -1
v -3 8 -3
v -2 5 5
v -2 5 4
v -2 5 -4
v -2 5 -5
v -2 6 5
v -2 6 4
v -2 6 -4
v -2 6 -5
v -2 8 2
v -2 8 -2
v -2 9 2
v -2 9 -2
v -1 7 4
v -1 7 3
v -1 7 -3
v -1 7 -4
v -1 8 4
v -1 8 3
v -1 8 -3
v -1 8 -4
v 1 0 8
v 1 0 7
v 1 0 -7
v 1 0 -8
v 1 2 8
v 1 2 7
v 1 2 -7
v 1 2 -8
v 2 3 7
v 2 3 6
v 2 3 -6
v 2 3 -7
v 2 4 7
v 2 4 6
v 2 4 -6
v 2 4 -7
v -2 3 7
v -2 3 6
v -2 3 -6
v -2 3 -7
v -2 4 7
v -2 4 6
v -2 4 -6
v -2 4 -7
v -1 0 8
v -1 0 7
v -1 0 -7
v -1 0 -8
v -1 2 8
v -1 2 7
v -1 2 -7
v -1 2 -8
v 1 7 4
v 1 7 3
v 1 7 -3
v 1 7 -4
v 1 8 4
v 1 8 3
v 1 8 -3
v 1 8 -4
v 2 5 5
v 2 5 4
v 2 5 -4
v 2 5 -5
v 2 6 5
v 2 6 4
v 2 6 -4
v 2 6 -5
v 2 8 2
v 2 8 -2
v 2 9 2
v 2 9 -2
v 3 5 4
v 3 5 3
v 3 5 -3
v 3 5 -4
v 3 6 4
v 3 6 3
v 3 6 -3
v 3 6 -4
v 3 7 4
v 3 7 3
v 3 7 1
v 3 7 -1
v 3 7 -3
v 3 7 -4
v 3 8 3
v 3 8 1
v 3 8 -1
v 3 8 -3
v 4 3 7
v 4 3 6
v 4 3 -6
v 4 3 -7
v 4 4 7
v 4 4 6
v 4 4 -6
v 4 4 -7
v 4 5 3
v 4 5 2
v 4 5 -2
v 4 5 -3
v 4 6 3
v 4 6 2
v 4 6 1
v 4 6 -1
v 4 6 -2
v 4 6 -3
v 4 7 3
v 4 7 1
v 4 7 -1
v 4 7 -3
v 4 8 1
v 4 8 -1
v 5 0 8
v 5 0 7
v 5 0 -7
v 5 0 -8
v 5 2 8
v 5 2 7
v 5 2 -7
v 5 2 -8
v 5 4 5
v 5 4 -5
v 5 5 5
v 5 5 2
v 5 5 -2
v 5 5 -5
v 5 6 2
v 5 6 -2
v 6 1 7
v 6 1 6
v 6 1 -6
v 6 1 -7
v 6 3 7
v 6 3 6
v 6 3 4
v 6 3 2
v 6 3 -2
v 6 3 -4
v 6 3 -6
v 6 3 -7
v 6 4 6
v 6 4 4
v 6 4 2
v 6 4 -2
v 6 4 -4
v 6 4 -6
v 7 0 7
v 7 0 5
v 7 0 1
v 7 0 -1
v 7 0 -5
v 7 0 -7
v 7 1 7
v 7 1 6
v 7 1 -6
v 7 1 -7
v 7 2 5
v 7 2 1
v 7 2 -1
v 7 2 -5
v 7 3 6
v 7 3 4
v 7 3 2
v 7 3 -2
v 7 3 -4
v 7 3 -6
v 7 4 4
v 7 4 2
v 7 4 -2
v 7 4 -4
v 8 0 5
v 8 0 1
v 8 0 -1
v 8 0 -5
v 8 2 5
v 8 2 1
v 8 2 -1
v 8 2 -5
v -5 0 8
v -5 2 8
v -1 0 8
v -1 2 8
v 1 0 8
v 1 2 8
v 5 0 8
v 5 2 8
v -7 0 7
v -7 1 7
v -6 1 7
v -6 3 7
v -5 0 7
v -5 2 7
v -4 3 7
v -4 4 7
v -2 3 7
v -2 4 7
v -1 0 7
v -1 2 7
v 1 0 7
v 1 2 7
v 2 3 7
v 2 4 7
v 4 3 7
v 4 4 7
v 5 0 7
v 5 2 7
v 6 1 7
v 6 3 7
v 7 0 7
v 7 1 7
v -7 1 6
v -7 3 6
v -6 1 6
v -6 3 6
v -6 4 6
v -4 3 6
v -4 4 6
v -2 3 6
v -2 4 6
v 2 3 6
v 2 4 6
v 4 3 6
v 4 4 6
v 6 1 6
v 6 3 6
v 6 4 6
v 7 1 6
v 7 3 6
v -8 0 5
v -8 2 5
v -7 0 5
v -7 2 5
v -5 4 5
v -5 5 5
v -2 5 5
v -2 6 5
v 2 5 5
v 2 6 5
v 5 4 5
v 5 5 5
v 7 0 5
v 7 2 5
v 8 0 5
v 8 2 5
v -7 3 4
v -7 4 4
v -6 3 4
v -6 4 4
v -3 5 4
v -3 6 4
v -3 7 4
v -2 5 4
v -2 6 4
v -1 6 4
v -1 7 4
v -1 8 4
v 1 6 4
v 1 7 4
v 1 8 4
v 2 5 4
v 2 6 4
v 3 5 4
v 3 6 4
v 3 7 4
v 6 3 4
v 6 4 4
v 7 3 4
v 7 4 4
v -4 5 3
v -4 6 3
v -4 7 3
v -3 5 3
v -3 6 3
v -3 7 3
v -3 8 3
v -1 7 3
v -1 8 3
v 1 7 3
v 1 8 3
v 3 5 3
v 3 6 3
v 3 7 3
v 3 8 3
v 4 5 3
v 4 6 3
v 4 7 3
v -5 5 2
v -5 6 2
v -4 5 2
v -4 6 2
v -2 8 2
v -2 9 2
v 2 8 2
v 2 9 2
v 4 5 2
v 4 6 2
v 5 5 2
v 5 6 2
v -4 7 1
v -4 8 1
v -3 7 1
v -3 8 1
v 3 7 1
v 3 8 1
v 4 7 1
v 4 8 1
v -8 0 -1
v -8 2 -1
v -7 0 -1
v -7 2 -1
v 7 0 -1
v 7 2 -1
v 8 0 -1
v 8 2 -1
v -7 3 -2
v -7 4 -2
v -6 3 -2
v -6 4 -2
v 6 3 -2
v 6 4 -2
v 7 3 -2
v 7 4 -2
v -7 3 2
v -7 4 2
v -6 3 2
v -6 4 2
v 6 3 2
v 6 4 2
v 7 3 2
v 7 4 2
v -8 0 1
v -8 2 1
v -7 0 1
v -7 2 1
v 7 0 1
v 7 2 1
v 8 0 1
v 8 2 1
v -4 7 -1
v -4 8 -1
v -3 7 -1
v -3 8 -1
v 3 7 -1
v 3 8 -1
v 4 7 -1
v 4 8 -1
v -5 5 -2
v -5 6 -2
v -4 5 -2
v -4 6 -2
v -2 8 -2
v -2 9 -2
v 2 8 -2
v 2 9 -2
v 4 5 -2
v 4 6 -2
v 5 5 -2
v 5 6 -2
v -4 5 -3
v -4 6 -3
v -4 7 -3
v -3 5 -3
v -3 6 -3
v -3 7 -3
v -3 8 -3
v -1 7 -3
v -1 8 -3
v 1 7 -3
v 1 8 -3
v 3 5 -3
v 3 6 -3
v 3 7 -3
v 3 8 -3
v 4 5 -3
v 4 6 -3
v 4 7 -3
v -7 3 -4
v -7 4 -4
v -6 3 -4
v -6 4 -4
v -3 5 -4
v -3 6 -4
v -3 7 -4
v -2 5 -4
v -2 6 -4
v -1 6 -4
v -1 7 -4
v -1 8 -4
v 1 6 -4
v 1 7 -4
v 1 8 -4
v 2 5 -4
v 2 6 -4
v 3 5 -4
v 3 6 -4
v 3 7 -4
v 6 3 -4
v 6 4 -4
v 7 3 -4
v 7 4 -4
v -8 0 -5
v -8 2 -5
v -7 0 -5
v -7 2 -5
v -5 4 -5
v -5 5 -5
v -2 5 -5
v -2 6 -5
v 2 5 -5
v 2 6 -5
v 5 4 -5
v 5 5 -5
v 7 0 -5
v 7 2 -5
v 8 0 -5
v 8 2 -5
v -7 1 -6
v -7 3 -6
v -6 1 -6
v -6 3 -6
v -6 4 -6
v -4 3 -6
v -4 4 -6
v -2 3 -6
v -2 4 -6
v 2 3 -6
v 2 4 -6
v 4 3 -6
v 4 4 -6
v 6 1 -6
v 6 3 -6
v 6 4 -6
v 7 1 -6
v 7 3 -6
v -7 0 -7
v -7 1 -7
v -6 1 -7
v -6 3 -7
v -5 0 -7
v -5 2 -7
v -4 3 -7
v -4 4 -7
v -2 3 -7
v -2 4 -7
v -1 0 -7
v -1 2 -7
v 1 0 -7
v 1 2 -7
v 2 3 -7
v 2 4 -7
v 4 3 -7
v 4 4 -7
v 5 0 -7
v 5 2 -7
v 6 1 -7
v 6 3 -7
v 7 0 -7
v 7 1 -7
v -5 0 -8
v -5 2 -8
v -1 0 -8
v -1 2 -8
v 1 0 -8
v 1 2 -8
v 5 0 -8
v 5 2 -8
v -5 0 8
v -1 0 8
v 1 0 8
v 5 0 8
v -7 0 7
v -5 0 7
v -1 0 7
v 1 0 7
v 5 0 7
v 7 0 7
v -8 0 5
v -7 0 5
v 7 0 5
v 8 0 5
v -8 0 1
v -7 0 1
v 7 0 1
v 8 0 1
v -8 0 -1
v -7 0 -1
v 7 0 -1
v 8 0 -1
v -8 0 -5
v -7 0 -5
v 7 0 -5
v 8 0 -5
v -7 0 -7
v -5 0 -7
v -1 0 -7
v 1 0 -7
v 5 0 -7
v 7 0 -7
v -5 0 -8
v -1 0 -8
v 1 0 -8
v 5 0 -8
v -7 1 7
v -6 1 7
v 6 1 7
v 7 1 7
v -7 1 6
v -6 1 6
v 6 1 6
v 7 1 6
v -7 1 -6
v -6 1 -6
v 6 1 -6
v 7 1 -6
v -7 1 -7
v -6 1 -7
v 6 1 -7
v 7 1 -7
v -5 2 8
v -1 2 8
v 1 2 8
v 5 2 8
v -5 2 7
v -1 2 7
v 1 2 7
v 5 2 7
v -8 2 5
v -7 2 5
v 7 2 5
v 8 2 5
v -8 2 1
v -7 2 1
v 7 2 1
v 8 2 1
v -8 2 -1
v -7 2 -1
v 7 2 -1
v 8 2 -1
v -8 2 -5
v -7 2 -5
v 7 2 -5
v 8 2 -5
v -5 2 -7
v -1 2 -7
v 1 2 -7
v 5 2 -7
v -5 2 -8
v -1 2 -8
v 1 2 -8
v 5 2 -8
v -6 3 7
v -4 3 7
v -2 3 7
v 2 3 7
v 4 3 7
v 6 3 7
v -7 3 6
v -6 3 6
v -4 3 6
v -2 3 6
v 2 3 6
v 4 3 6
v 6 3 6
v 7 3 6
v -7 3 4
v -6 3 4
v 6 3 4
v 7 3 4
v -7 3 2
v -6 3 2
v 6 3 2
v 7 3 2
v -7 3 -2
v -6 3 -2
v 6 3 -2
v 7 3 -2
v -7 3 -4
v -6 3 -4
v 6 3 -4
v 7 3 -4
v -7 3 -6
v -6 3 -6
v -4 3 -6
v -2 3 -6
v 2 3 -6
v 4 3 -6
v 6 3 -6
v 7 3 -6
v -6 3 -7
v -4 3 -7
v -2 3 -7
v 2 3 -7
v 4 3 -7
v 6 3 -7
v -4 4 7
v -2 4 7
v 2 4 7
v 4 4 7
v -6 4 6
v -4 4 6
v -2 4 6
v 2 4 6
v 4 4 6
v 6 4 6
v -5 4 5
v 5 4 5
v -7 4 4
v -6 4 4
v 6 4 4
v 7 4 4
v -7 4 2
v -6 4 2
v 6 4 2
v 7 4 2
v -7 4 -2
v -6 4 -2
v 6 4 -2
v 7 4 -2
v -7 4 -4
v -6 4 -4
v 6 4 -4
v 7 4 -4
v -5 4 -5
v 5 4 -5
v -6 4 -6
v -4 4 -6
v -2 4 -6
v 2 4 -6
v 4 4 -6
v 6 4 -6
v -4 4 -7
v -2 4 -7
v 2 4 -7
v 4 4 -7
v -5 5 5
v -2 5 5
v 2 5 5
v 5 5 5
v -3 5 4
v -2 5 4
v 2 5 4
v 3 5 4
v -4 5 3
v -3 5 3
v 3 5 3
v 4 5 3
v -5 5 2
v -4 5 2
v 4 5 2
v 5 5 2
v -5 5 -2
v -4 5 -2
v 4 5 -2
v 5 5 -2
v -4 5 -3
v -3 5 -3
v 3 5 -3
v 4 5 -3
v -3 5 -4
v -2 5 -4
v 2 5 -4
v 3 5 -4
v -5 5 -5
v -2 5 -5
v 2 5 -5
v 5 5 -5
v -2 6 5
v 2 6 5
v -2 6 4
v -1 6 4
v 1 6 4
v 2 6 4
v -5 6 2
v -4 6 2
v 4 6 2
v 5 6 2
v -4 6 1
v 4 6 1
v -4 6 -1
v 4 6 -1
v -5 6 -2
v -4 6 -2
v 4 6 -2
v 5 6 -2
v -2 6 -4
v -1 6 -4
v 1 6 -4
v 2 6 -4
v -2 6 -5
v 2 6 -5
v -3 7 4
v -1 7 4
v 1 7 4
v 3 7 4
v -4 7 3
v -3 7 3
v -1 7 3
v 1 7 3
v 3 7 3
v 4 7 3
v -4 7 1
v -3 7 1
v 3 7 1
v 4 7 1
v -4 7 -1
v -3 7 -1
v 3 7 -1
v 4 7 -1
v -4 7 -3
v -3 7 -3
v -1 7 -3
v 1 7 -3
v 3 7 -3
v 4 7 -3
v -3 7 -4
v -1 7 -4
v 1 7 -4
v 3 7 -4
v -1 8 4
v 1 8 4
v -3 8 3
v -1 8 3
v 1 8 3
v 3 8 3
v -2 8 2
v 2 8 2
v -4 8 1
v -3 8 1
v 3 8 1
v 4 8 1
v -4 8 -1
v -3 8 -1
v 3 8 -1
v 4 8 -1
v -2 8 -2
v 2 8 -2
v -3 8 -3
v -1 8 -3
v 1 8 -3
v 3 8 -3
v -1 8 -4
v 1 8 -4
v -2 9 2
v 2 9 2
v -2 9 -2
v 2 9 -2

# faces
f 5/2/1 2/2/1 1/2/1
f 6/2/1 2/2/1 5/2/1
f 7/2/1 4/2/1 3/2/1
f 8/2/1 4/2/1 7/2/1
f 15/2/1 10/2/1 9/2/1
f 16/2/1 10/2/1 15/2/1
f 17/2/1 14/2/1 13/2/1
f 18/2/1 14/2/1 17/2/1
f 19/2/1 10/2/1 16/2/1
f 20/2/1 12/2/1 11/2/1
f 21/2/1 12/2/1 20/2/1
f 22/2/1 17/2/1 13/2/1
f 23/2/1 19/2/1 16/2/1
f 23/2/1 22/2/1 21/2/1
f 23/2/1 21/2/1 20/2/1
f 23/2/1 20/2/1 19/2/1
f 24/2/1 22/2/1 23/2/1
f 25/2/1 22/2/1 24/2/1
f 26/2/1 22/2/1 25/2/1
f 27/2/1 22/2/1 26/2/1
f 28/2/1 17/2/1 22/2/1
f 28/2/1 22/2/1 27/2/1
f 29/2/1 25/2/1 24/2/1
f 30/2/1 25/2/1 29/2/1
f 31/2/1 27/2/1 26/2/1
f 32/2/1 27/2/1 31/2/1
f 37/2/1 34/2/1 33/2/1
f 38/2/1 34/2/1 37/2/1
f 43/2/1 36/2/1 35/2/1
f 44/2/1 36/2/1 43/2/1
f 45/2/1 39/2/1 38/2/1
f 46/2/1 39/2/1 45/2/1
f 47/2/1 41/2/1 40/2/1
f 48/2/1 41/2/1 47/2/1
f 49/2/1 43/2/1 42/2/1
f 50/2/1 43/2/1 49/2/1
f 55/2/1 52/2/1 51/2/1
f 56/2/1 52/2/1 55/2/1
f 57/2/1 54/2/1 53/2/1
f 58/2/1 54/2/1 57/2/1
f 61/2/1 60/2/1 59/2/1
f 62/2/1 60/2/1 61/2/1
f 63/2/1 60/2/1 62/2/1
f 64/2/1 60/2/1 63/2/1
f 65/2/1 63/2/1 62/2/1
f 66/2/1 63/2/1 65/2/1
f 71/2/1 68/2/1 67/2/1
f 72/2/1 68/2/1 71/2/1
f 73/2/1 70/2/1 69/2/1
f 74/2/1 70/2/1 73/2/1
f 79/2/1 76/2/1 75/2/1
f 80/2/1 76/2/1 79/2/1
f 83/2/1 78/2/1 77/2/1
f 84/2/1 78/2/1 83/2/1
f 85/1/1 80/1/1 79/1/1
f 85/1/1 81/1/1 80/1/1
f 86/2/1 82/2/1 81/2/1
f 86/1/1 81/1/1 85/1/1
f 87/1/1 84/1/1 83/1/1
f 87/2/1 82/2/1 86/2/1
f 87/1/1 83/1/1 82/1/1
f 88/1/1 84/1/1 87/1/1
f 89/1/1 87/1/1 86/1/1
f 90/1/1 87/1/1 89/1/1
f 95/2/1 92/2/1 91/2/1
f 96/2/1 92/2/1 95/2/1
f 97/2/1 94/2/1 93/2/1
f 98/2/1 94/2/1 97/2/1
f 99/1/1 96/1/1 95/1/1
f 100/1/1 96/1/1 99/1/1
f 103/1/1 98/1/1 97/1/1
f 104/1/1 98/1/1 103/1/1
f 105/1/1 101/1/1 100/1/1
f 106/1/1 101/1/1 105/1/1
f 107/1/1 103/1/1 102/1/1
f 108/1/1 103/1/1 107/1/1
f 113/2/1 110/2/1 109/2/1
f 114/2/1 110/2/1 113/2/1
f 115/2/1 112/2/1 111/2/1
f 116/2/1 112/2/1 115/2/1
f 119/1/1 118/1/1 117/1/1
f 120/1/1 118/1/1 119/1/1
f 125/1/1 122/1/1 121/1/1
f 126/1/1 122/1/1 125/1/1
f 127/1/1 124/1/1 123/1/1
f 128/1/1 124/1/1 127/1/1
f 133/2/1 130/2/1 129/2/1
f 134/2/1 130/2/1 133/2/1
f 135/2/1 132/2/1 131/2/1
f 136/2/1 132/2/1 135/2/1
f 141/2/1 138/2/1 137/2/1
f 142/2/1 138/2/1 141/2/1
f 143/2/1 140/2/1 139/2/1
f 144/2/1 140/2/1 143/2/1
f 145/2/2 146/2/2 149/2/2
f 149/2/2 146/2/2 150/2/2
f 147/2/2 148/2/2 151/2/2
f 151/2/2 148/2/2 152/2/2
f 153/2/2 154/2/2 157/2/2
f 157/2/2 154/2/2 158/2/2
f 155/2/2 156/2/2 159/2/2
f 159/2/2 156/2/2 160/2/2
f 161/1/2 162/1/2 165/1/2
f 165/1/2 162/1/2 166/1/2
f 163/1/2 164/1/2 167/1/2
f 167/1/2 164/1/2 168/1/2
f 169/2/2 170/2/2 173/2/2
f 173/2/2 170/2/2 174/2/2
f 171/2/2 172/2/2 175/2/2
f 175/2/2 172/2/2 176/2/2
f 177/1/2 178/1/2 179/1/2
f 179/1/2 178/1/2 180/1/2
f 181/2/2 182/2/2 185/2/2
f 185/2/2 182/2/2 186/2/2
f 183/2/2 184/2/2 187/2/2
f 187/2/2 184/2/2 188/2/2
f 185/1/2 186/1/2 189/1/2
f 189/1/2 186/1/2 190/1/2
f 187/1/2 188/1/2 193/1/2
f 193/1/2 188/1/2 194/1/2
f 190/1/2 191/1/2 195/1/2
f 195/1/2 191/1/2 196/1/2
f 192/1/2 193/1/2 197/1/2
f 197/1/2 193/1/2 198/1/2
f 199/2/2 200/2/2 203/2/2
f 203/2/2 200/2/2 204/2/2
f 201/2/2 202/2/2 205/2/2
f 205/2/2 202/2/2 206/2/2
f 207/2/2 208/2/2 211/2/2
f 211/2/2 208/2/2 212/2/2
f 209/2/2 210/2/2 215/2/2
f 215/2/2 210/2/2 216/2/2
f 211/1/2 212/1/2 217/1/2
f 212/1/2 213/1/2 217/1/2
f 213/2/2 214/2/2 218/2/2
f 217/1/2 213/1/2 218/1/2
f 215/1/2 216/1/2 219/1/2
f 218/2/2 214/2/2 219/2/2
f 214/1/2 215/1/2 219/1/2
f 219/1/2 216/1/2 220/1/2
f 218/1/2 219/1/2 221/1/2
f 221/1/2 219/1/2 222/1/2
f 223/2/2 224/2/2 227/2/2
f 227/2/2 224/2/2 228/2/2
f 225/2/2 226/2/2 229/2/2
f 229/2/2 226/2/2 230/2/2
f 231/2/2 232/2/2 233/2/2
f 233/2/2 232/2/2 234/2/2
f 234/2/2 232/2/2 235/2/2
f 235/2/2 232/2/2 236/2/2
f 234/2/2 235/2/2 237/2/2
f 237/2/2 235/2/2 238/2/2
f 239/2/2 240/2/2 243/2/2
f 243/2/2 240/2/2 244/2/2
f 241/2/2 242/2/2 249/2/2
f 249/2/2 242/2/2 250/2/2
f 244/2/2 245/2/2 251/2/2
f 251/2/2 245/2/2 252/2/2
f 246/2/2 247/2/2 253/2/2
f 253/2/2 247/2/2 254/2/2
f 248/2/2 249/2/2 255/2/2
f 255/2/2 249/2/2 256/2/2
f 257/2/2 258/2/2 263/2/2
f 263/2/2 258/2/2 264/2/2
f 261/2/2 262/2/2 265/2/2
f 265/2/2 262/2/2 266/2/2
f 264/2/2 258/2/2 267/2/2
f 259/2/2 260/2/2 268/2/2
f 268/2/2 260/2/2 269/2/2
f 261/2/2 265/2/2 270/2/2
f 264/2/2 267/2/2 271/2/2
f 269/2/2 270/2/2 271/2/2
f 268/2/2 269/2/2 271/2/2
f 267/2/2 268/2/2 271/2/2
f 271/2/2 270/2/2 272/2/2
f 272/2/2 270/2/2 273/2/2
f 273/2/2 270/2/2 274/2/2
f 274/2/2 270/2/2 275/2/2
f 270/2/2 265/2/2 276/2/2
f 275/2/2 270/2/2 276/2/2
f 272/2/2 273/2/2 277/2/2
f 277/2/2 273/2/2 278/2/2
f 274/2/2 275/2/2 279/2/2
f 279/2/2 275/2/2 280/2/2
f 281/2/2 282/2/2 285/2/2
f 285/2/2 282/2/2 286/2/2
f 283/2/2 284/2/2 287/2/2
f 287/2/2 284/2/2 288/2/2
f 291/2/3 290/2/3 289/2/3
f 292/2/3 290/2/3 291/2/3
f 295/2/3 294/2/3 293/2/3
f 296/2/3 294/2/3 295/2/3
f 299/2/3 298/2/3 297/2/3
f 301/2/3 299/2/3 297/2/3
f 301/2/3 300/2/3 299/2/3
f 302/2/3 300/2/3 301/2/3
f 303/2/3 300/2/3 302/2/3
f 305/2/3 303/2/3 302/2/3
f 305/2/3 304/2/3 303/2/3
f 306/2/3 304/2/3 305/2/3
f 308/2/3 305/2/3 302/2/3
f 309/2/3 308/2/3 307/2/3
f 310/2/3 305/2/3 308/2/3
f 310/2/3 308/2/3 309/2/3
f 311/2/3 305/2/3 310/2/3
f 313/2/3 311/2/3 310/2/3
f 313/2/3 312/2/3 311/2/3
f 314/2/3 312/2/3 313/2/3
f 316/2/3 313/2/3 310/2/3
f 317/2/3 316/2/3 315/2/3
f 318/2/3 313/2/3 316/2/3
f 318/2/3 316/2/3 317/2/3
f 319/2/3 317/2/3 315/2/3
f 320/2/3 317/2/3 319/2/3
f 323/2/3 322/2/3 321/2/3
f 324/2/3 322/2/3 323/2/3
f 326/2/3 325/2/3 324/2/3
f 327/2/3 325/2/3 326/2/3
f 330/2/3 329/2/3 328/2/3
f 331/2/3 329/2/3 330/2/3
f 335/2/3 333/2/3 332/2/3
f 336/2/3 333/2/3 335/2/3
f 337/2/3 335/2/3 334/2/3
f 338/2/3 335/2/3 337/2/3
f 341/2/3 340/2/3 339/2/3
f 342/2/3 340/2/3 341/2/3
f 345/2/3 344/2/3 343/2/3
f 347/2/3 345/2/3 343/2/3
f 347/2/3 346/2/3 345/2/3
f 348/2/3 346/2/3 347/2/3
f 349/2/3 347/2/3 343/2/3
f 350/2/3 347/2/3 349/2/3
f 353/2/3 352/2/3 351/2/3
f 354/2/3 352/2/3 353/2/3
f 357/2/3 356/2/3 355/2/3
f 358/2/3 356/2/3 357/2/3
f 362/2/3 360/2/3 359/2/3
f 363/1/3 361/1/3 360/1/3
f 363/2/3 360/2/3 362/2/3
f 364/1/3 361/1/3 363/1/3
f 365/1/3 361/1/3 364/1/3
f 367/2/3 365/2/3 364/2/3
f 368/1/3 366/1/3 365/1/3
f 368/2/3 365/2/3 367/2/3
f 369/1/3 366/1/3 368/1/3
f 371/1/3 368/1/3 367/1/3
f 372/2/3 371/2/3 370/2/3
f 373/1/3 368/1/3 371/1/3
f 373/2/3 371/2/3 372/2/3
f 374/1/3 368/1/3 373/1/3
f 377/2/3 376/2/3 375/2/3
f 378/2/3 376/2/3 377/2/3
f 382/2/3 380/2/3 379/2/3
f 383/1/3 381/1/3 380/1/3
f 383/2/3 380/2/3 382/2/3
f 384/1/3 381/1/3 383/1/3
f 386/1/3 385/1/3 384/1/3
f 387/1/3 385/1/3 386/1/3
f 392/1/3 389/1/3 388/1/3
f 393/1/3 389/1/3 392/1/3
f 394/2/3 391/2/3 390/2/3
f 395/1/3 392/1/3 391/1/3
f 395/2/3 391/2/3 394/2/3
f 396/1/3 392/1/3 395/1/3
f 399/2/3 398/2/3 397/2/3
f 400/2/3 398/2/3 399/2/3
f 403/1/3 402/1/3 401/1/3
f 404/1/3 402/1/3 403/1/3
f 407/2/3 406/2/3 405/2/3
f 408/2/3 406/2/3 407/2/3
f 411/1/3 410/1/3 409/1/3
f 412/1/3 410/1/3 411/1/3
f 415/1/3 414/1/3 413/1/3
f 416/1/3 414/1/3 415/1/3
f 419/2/3 418/2/3 417/2/3
f 420/2/3 418/2/3 419/2/3
f 423/2/3 422/2/3 421/2/3
f 424/2/3 422/2/3 423/2/3
f 427/2/3 426/2/3 425/2/3
f 428/2/3 426/2/3 427/2/3
f 431/2/3 430/2/3 429/2/3
f 432/2/3 430/2/3 431/2/3
f 433/2/4 434/2/4 435/2/4
f 435/2/4 434/2/4 436/2/4
f 437/2/4 438/2/4 439/2/4
f 439/2/4 438/2/4 440/2/4
f 441/2/4 442/2/4 443/2/4
f 443/2/4 442/2/4 444/2/4
f 445/2/4 446/2/4 447/2/4
f 447/2/4 446/2/4 448/2/4
f 449/1/4 450/1/4 451/1/4
f 451/1/4 450/1/4 452/1/4
f 453/1/4 454/1/4 455/1/4
f 455/1/4 454/1/4 456/1/4
f 457/2/4 458/2/4 459/2/4
f 459/2/4 458/2/4 460/2/4
f 461/1/4 462/1/4 463/1/4
f 463/1/4 462/1/4 464/1/4
f 465/2/4 466/2/4 467/2/4
f 467/2/4 466/2/4 468/2/4
f 469/2/4 470/2/4 472/2/4
f 470/1/4 471/1/4 473/1/4
f 472/2/4 470/2/4 473/2/4
f 473/1/4 471/1/4 474/1/4
f 474/1/4 475/1/4 476/1/4
f 476/1/4 475/1/4 477/1/4
f 478/1/4 479/1/4 482/1/4
f 482/1/4 479/1/4 483/1/4
f 480/2/4 481/2/4 484/2/4
f 481/1/4 482/1/4 485/1/4
f 484/2/4 481/2/4 485/2/4
f 485/1/4 482/1/4 486/1/4
f 487/2/4 488/2/4 489/2/4
f 489/2/4 488/2/4 490/2/4
f 491/2/4 492/2/4 494/2/4
f 492/1/4 493/1/4 495/1/4
f 494/2/4 492/2/4 495/2/4
f 495/1/4 493/1/4 496/1/4
f 496/1/4 493/1/4 497/1/4
f 496/2/4 497/2/4 499/2/4
f 497/1/4 498/1/4 500/1/4
f 499/2/4 497/2/4 500/2/4
f 500/1/4 498/1/4 501/1/4
f 499/1/4 500/1/4 503/1/4
f 502/2/4 503/2/4 504/2/4
f 503/1/4 500/1/4 505/1/4
f 504/2/4 503/2/4 505/2/4
f 505/1/4 500/1/4 506/1/4
f 507/2/4 508/2/4 509/2/4
f 509/2/4 508/2/4 510/2/4
f 511/2/4 512/2/4 513/2/4
f 513/2/4 512/2/4 514/2/4
f 515/2/4 516/2/4 517/2/4
f 515/2/4 517/2/4 519/2/4
f 517/2/4 518/2/4 519/2/4
f 519/2/4 518/2/4 520/2/4
f 515/2/4 519/2/4 521/2/4
f 521/2/4 519/2/4 522/2/4
f 523/2/4 524/2/4 525/2/4
f 525/2/4 524/2/4 526/2/4
f 527/2/4 528/2/4 529/2/4
f 529/2/4 528/2/4 530/2/4
f 530/2/4 531/2/4 532/2/4
f 532/2/4 531/2/4 533/2/4
f 534/2/4 535/2/4 536/2/4
f 536/2/4 535/2/4 537/2/4
f 538/2/4 539/2/4 541/2/4
f 541/2/4 539/2/4 542/2/4
f 540/2/4 541/2/4 543/2/4
f 543/2/4 541/2/4 544/2/4
f 545/2/4 546/2/4 547/2/4
f 545/2/4 547/2/4 549/2/4
f 547/2/4 548/2/4 549/2/4
f 549/2/4 548/2/4 550/2/4
f 550/2/4 548/2/4 551/2/4
f 550/2/4 551/2/4 553/2/4
f 551/2/4 552/2/4 553/2/4
f 553/2/4 552/2/4 554/2/4
f 550/2/4 553/2/4 556/2/4
f 555/2/4 556/2/4 557/2/4
f 556/2/4 553/2/4 558/2/4
f 557/2/4 556/2/4 558/2/4
f 558/2/4 553/2/4 559/2/4
f 558/2/4 559/2/4 561/2/4
f 559/2/4 560/2/4 561/2/4
f 561/2/4 560/2/4 562/2/4
f 558/2/4 561/2/4 564/2/4
f 563/2/4 564/2/4 565/2/4
f 564/2/4 561/2/4 566/2/4
f 565/2/4 564/2/4 566/2/4
f 563/2/4 565/2/4 567/2/4
f 567/2/4 565/2/4 568/2/4
f 569/2/4 570/2/4 571/2/4
f 571/2/4 570/2/4 572/2/4
f 573/2/4 574/2/4 575/2/4
f 575/2/4 574/2/4 576/2/4
f 582/2/5 578/2/5 577/2/5
f 583/2/5 578/2/5 582/2/5
f 584/2/5 580/2/5 579/2/5
f 585/2/5 580/2/5 584/2/5
f 588/2/5 583/2/5 582/2/5
f 588/2/5 586/2/5 585/2/5
f 588/2/5 585/2/5 584/2/5
f 588/2/5 584/2/5 583/2/5
f 588/2/5 582/2/5 581/2/5
f 589/2/5 586/2/5 588/2/5
f 591/2/5 588/2/5 587/2/5
f 591/2/5 590/2/5 589/2/5
f 591/2/5 589/2/5 588/2/5
f 592/2/5 590/2/5 591/2/5
f 593/2/5 590/2/5 592/2/5
f 594/2/5 590/2/5 593/2/5
f 596/2/5 593/2/5 592/2/5
f 597/2/5 593/2/5 596/2/5
f 599/2/5 596/2/5 595/2/5
f 599/2/5 598/2/5 597/2/5
f 599/2/5 597/2/5 596/2/5
f 600/2/5 598/2/5 599/2/5
f 601/2/5 598/2/5 600/2/5
f 602/2/5 598/2/5 601/2/5
f 603/2/5 601/2/5 600/2/5
f 604/2/5 601/2/5 603/2/5
f 605/2/5 601/2/5 604/2/5
f 606/2/5 601/2/5 605/2/5
f 607/2/5 601/2/5 606/2/5
f 608/2/5 601/2/5 607/2/5
f 609/2/5 605/2/5 604/2/5
f 610/2/5 605/2/5 609/2/5
f 611/2/5 607/2/5 606/2/5
f 612/2/5 607/2/5 611/2/5
f 613/2/6 614/2/6 617/2/6
f 617/2/6 614/2/6 618/2/6
f 615/2/6 616/2/6 619/2/6
f 619/2/6 616/2/6 620/2/6
f 621/2/6 622/2/6 625/2/6
f 625/2/6 622/2/6 626/2/6
f 623/2/6 624/2/6 627/2/6
f 627/2/6 624/2/6 628/2/6
f 629/2/6 630/2/6 633/2/6
f 633/2/6 630/2/6 634/2/6
f 631/2/6 632/2/6 635/2/6
f 635/2/6 632/2/6 636/2/6
f 637/2/6 638/2/6 641/2/6
f 641/2/6 638/2/6 642/2/6
f 639/2/6 640/2/6 643/2/6
f 643/2/6 640/2/6 644/2/6
f 645/2/6 646/2/6 649/2/6
f 649/2/6 646/2/6 650/2/6
f 647/2/6 648/2/6 651/2/6
f 651/2/6 648/2/6 652/2/6
f 653/2/6 654/2/6 657/2/6
f 657/2/6 654/2/6 658/2/6
f 655/2/6 656/2/6 659/2/6
f 659/2/6 656/2/6 660/2/6
f 661/2/6 662/2/6 668/2/6
f 668/2/6 662/2/6 669/2/6
f 663/2/6 664/2/6 670/2/6
f 670/2/6 664/2/6 671/2/6
f 665/2/6 666/2/6 672/2/6
f 672/2/6 666/2/6 673/2/6
f 667/2/6 668/2/6 675/2/6
f 675/2/6 668/2/6 676/2/6
f 673/2/6 674/2/6 677/2/6
f 677/2/6 674/2/6 678/2/6
f 679/2/6 680/2/6 683/2/6
f 683/2/6 680/2/6 684/2/6
f 681/2/6 682/2/6 685/2/6
f 685/2/6 682/2/6 686/2/6
f 687/2/6 688/2/6 691/2/6
f 691/2/6 688/2/6 692/2/6
f 689/2/6 690/2/6 697/2/6
f 697/2/6 690/2/6 698/2/6
f 692/2/6 693/2/6 699/2/6
f 699/2/6 693/2/6 700/2/6
f 694/2/6 695/2/6 701/2/6
f 701/2/6 695/2/6 702/2/6
f 696/2/6 697/2/6 703/2/6
f 703/2/6 697/2/6 704/2/6
f 705/2/6 706/2/6 710/2/6
f 710/2/6 706/2/6 711/2/6
f 707/2/6 708/2/6 712/2/6
f 712/2/6 708/2/6 713/2/6
f 710/2/6 711/2/6 715/2/6
f 713/2/6 714/2/6 715/2/6
f 712/2/6 713/2/6 715/2/6
f 711/2/6 712/2/6 715/2/6
f 709/2/6 710/2/6 715/2/6
f 715/2/6 714/2/6 716/2/6
f 709/2/6 715/2/6 718/2/6
f 716/2/6 714/2/6 719/2/6
f 717/2/6 718/2/6 721/2/6
f 718/2/6 715/2/6 722/2/6
f 721/2/6 718/2/6 722/2/6
f 719/2/6 720/2/6 723/2/6
f 716/2/6 719/2/6 723/2/6
f 723/2/6 720/2/6 724/2/6
f 722/2/6 715/2/6 726/2/6
f 716/2/6 723/2/6 727/2/6
f 725/2/6 726/2/6 729/2/6
f 726/2/6 715/2/6 730/2/6
f 729/2/6 726/2/6 730/2/6
f 727/2/6 728/2/6 731/2/6
f 716/2/6 727/2/6 731/2/6
f 731/2/6 728/2/6 732/2/6
f 730/2/6 715/2/6 733/2/6
f 716/2/6 731/2/6 734/2/6
f 730/2/6 733/2/6 735/2/6
f 733/2/6 734/2/6 735/2/6
f 735/2/6 734/2/6 736/2/6
f 736/2/6 734/2/6 737/2/6
f 737/2/6 734/2/6 738/2/6
f 738/2/6 734/2/6 739/2/6
f 734/2/6 731/2/6 740/2/6
f 739/2/6 734/2/6 740/2/6
f 736/2/6 737/2/6 741/2/6
f 741/2/6 737/2/6 742/2/6
f 738/2/6 739/2/6 743/2/6
f 743/2/6 739/2/6 744/2/6
f 745/2/6 746/2/6 749/2/6
f 749/2/6 746/2/6 750/2/6
f 747/2/6 748/2/6 751/2/6
f 751/2/6 748/2/6 752/2/6
f 745/2/6 749/2/6 753/2/6
f 753/2/6 749/2/6 754/2/6
f 752/2/6 748/2/6 755/2/6
f 755/2/6 748/2/6 756/2/6
f 745/2/6 753/2/6 757/2/6
f 757/2/6 753/2/6 758/2/6
f 756/2/6 748/2/6 759/2/6
f 759/2/6 748/2/6 760/2/6
f 761/2/6 762/2/6 765/2/6
f 763/2/6 764/2/6 768/2/6
f 765/2/6 766/2/6 769/2/6
f 767/2/6 768/2/6 772/2/6
f 769/2/6 770/2/6 773/2/6
f 761/2/6 765/2/6 773/2/6
f 765/2/6 769/2/6 773/2/6
f 773/2/6 770/2/6 774/2/6
f 771/2/6 772/2/6 775/2/6
f 772/2/6 768/2/6 776/2/6
f 775/2/6 772/2/6 776/2/6
f 768/2/6 764/2/6 776/2/6
f 777/2/6 778/2/6 779/2/6
f 779/2/6 778/2/6 780/2/6
f 780/2/6 778/2/6 781/2/6
f 781/2/6 778/2/6 782/2/6
f 783/2/6 784/2/6 787/2/6
f 785/2/6 786/2/6 788/2/6
f 783/2/6 787/2/6 789/2/6
f 788/2/6 786/2/6 790/2/6
f 783/2/6 789/2/6 791/2/6
f 791/2/6 789/2/6 792/2/6
f 790/2/6 786/2/6 793/2/6
f 793/2/6 786/2/6 794/2/6
f 795/2/6 796/2/6 799/2/6
f 797/2/6 798/2/6 799/2/6
f 796/2/6 797/2/6 799/2/6
f 799/2/6 798/2/6 800/2/6
f 801/1/6 802/1/6 806/1/6
f 806/1/6 802/1/6 807/1/6
f 803/1/6 804/1/6 808/1/6
f 808/1/6 804/1/6 809/1/6
f 805/1/6 806/1/6 811/1/6
f 811/1/6 806/1/6 812/1/6
f 809/1/6 810/1/6 813/1/6
f 813/1/6 810/1/6 814/1/6
f 815/1/6 816/1/6 819/1/6
f 819/1/6 816/1/6 820/1/6
f 817/1/6 818/1/6 823/1/6
f 823/1/6 818/1/6 824/1/6
f 820/1/6 821/1/6 825/1/6
f 825/1/6 821/1/6 826/1/6
f 822/1/6 823/1/6 827/1/6
f 827/1/6 823/1/6 828/1/6
f 829/1/6 830/1/6 832/1/6
f 832/1/6 830/1/6 833/1/6
f 831/1/6 832/1/6 835/1/6
f 833/1/6 834/1/6 835/1/6
f 832/1/6 833/1/6 835/1/6
f 835/1/6 834/1/6 836/1/6
f 831/1/6 835/1/6 838/1/6
f 836/1/6 834/1/6 839/1/6
f 837/1/6 838/1/6 841/1/6
f 838/1/6 835/1/6 842/1/6
f 841/1/6 838/1/6 842/1/6
f 839/1/6 840/1/6 843/1/6
f 836/1/6 839/1/6 843/1/6
f 843/1/6 840/1/6 844/1/6
f 842/1/6 835/1/6 845/1/6
f 836/1/6 843/1/6 846/1/6
f 842/1/6 845/1/6 847/1/6
f 845/1/6 846/1/6 847/1/6
f 847/1/6 846/1/6 848/1/6
f 848/1/6 846/1/6 849/1/6
f 846/1/6 843/1/6 850/1/6
f 849/1/6 846/1/6 850/1/6
f 848/1/6 849/1/6 851/1/6
f 851/1/6 849/1/6 852/1/6
f 853/1/6 854/1/6 855/1/6
f 855/1/6 854/1/6 856/1/6
