# MagicaVoxel @ Ephtracy

# material
mtllib Car02.mtl
usemtl palette

# normals
vn -1 0 0
vn 1 0 0
vn 0 0 1
vn 0 0 -1
vn 0 -1 0
vn 0 1 0

# texcoords
vt 0.783203 0.5
vt 0.814453 0.5
vt 0.908203 0.5
vt 0.970703 0.5
vt 0.978516 0.5
vt 0.986328 0.5
vt 0.990234 0.5

# verts
v -7 5 8.5
v -7 5 7.5
v -7 7 8.5
v -7 7 7.5
v -5 0 14.5
v -5 0 10.5
v -5 0 5.5
v -5 0 -6.5
v -5 0 -11.5
v -5 0 -14.5
v -5 1 -13.5
v -5 1 -14.5
v -5 2 14.5
v -5 2 13.5
v -5 2 10.5
v -5 2 9.5
v -5 2 6.5
v -5 2 5.5
v -5 2 -6.5
v -5 2 -7.5
v -5 2 -10.5
v -5 2 -11.5
v -5 2 -13.5
v -5 2 -14.5
v -5 3 9.5
v -5 3 6.5
v -5 3 2.5
v -5 3 -0.5
v -5 3 -4.5
v -5 3 -7.5
v -5 3 -10.5
v -5 3 -13.5
v -5 3 -14.5
v -5 4 14.5
v -5 4 13.5
v -5 4 2.5
v -5 4 -0.5
v -5 4 -4.5
v -5 4 -7.5
v -5 4 -13.5
v -5 4 -14.5
v -5 5 14.5
v -5 5 11.5
v -5 5 9.5
v -5 5 8.5
v -5 5 7.5
v -5 5 5.5
v -5 5 4.5
v -5 5 -0.5
v -5 5 -1.5
v -5 5 -7.5
v -5 5 -8.5
v -5 5 -12.5
v -5 6 11.5
v -5 6 10.5
v -5 6 9.5
v -5 6 8.5
v -5 6 -11.5
v -5 6 -12.5
v -5 6 -13.5
v -5 6 -14.5
v -5 7 10.5
v -5 7 9.5
v -5 7 8.5
v -5 7 7.5
v -5 7 -10.5
v -5 7 -11.5
v -5 7 -12.5
v -5 7 -13.5
v -5 8 9.5
v -5 8 8.5
v -5 8 7.5
v -5 8 6.5
v -5 8 -9.5
v -5 8 -10.5
v -5 8 -11.5
v -5 8 -12.5
v -5 9 8.5
v -5 9 7.5
v -5 9 6.5
v -5 9 5.5
v -5 9 -8.5
v -5 9 -9.5
v -5 9 -10.5
v -5 9 -11.5
v -5 10 7.5
v -5 10 6.5
v -5 10 4.5
v -5 10 -0.5
v -5 10 -1.5
v -5 10 -7.5
v -5 10 -9.5
v -5 10 -10.5
v -5 11 6.5
v -5 11 -9.5
v -4 0 10.5
v -4 0 5.5
v -4 0 -6.5
v -4 0 -11.5
v -4 2 10.5
v -4 2 9.5
v -4 2 6.5
v -4 2 5.5
v -4 2 -6.5
v -4 2 -7.5
v -4 2 -10.5
v -4 2 -11.5
v -4 3 9.5
v -4 3 6.5
v -4 3 -7.5
v -4 3 -10.5
v 4 0 10.5
v 4 0 5.5
v 4 0 -6.5
v 4 0 -11.5
v 4 2 10.5
v 4 2 9.5
v 4 2 6.5
v 4 2 5.5
v 4 2 -6.5
v 4 2 -7.5
v 4 2 -10.5
v 4 2 -11.5
v 4 3 9.5
v 4 3 6.5
v 4 3 -7.5
v 4 3 -10.5
v 5 0 14.5
v 5 0 10.5
v 5 0 5.5
v 5 0 -6.5
v 5 0 -11.5
v 5 0 -14.5
v 5 1 -13.5
v 5 1 -14.5
v 5 2 14.5
v 5 2 13.5
v 5 2 10.5
v 5 2 9.5
v 5 2 6.5
v 5 2 5.5
v 5 2 -6.5
v 5 2 -7.5
v 5 2 -10.5
v 5 2 -11.5
v 5 2 -13.5
v 5 2 -14.5
v 5 3 9.5
v 5 3 6.5
v 5 3 2.5
v 5 3 -0.5
v 5 3 -4.5
v 5 3 -7.5
v 5 3 -10.5
v 5 3 -13.5
v 5 3 -14.5
v 5 4 14.5
v 5 4 13.5
v 5 4 2.5
v 5 4 -0.5
v 5 4 -4.5
v 5 4 -7.5
v 5 4 -13.5
v 5 4 -14.5
v 5 5 14.5
v 5 5 11.5
v 5 5 9.5
v 5 5 8.5
v 5 5 7.5
v 5 5 5.5
v 5 5 4.5
v 5 5 -0.5
v 5 5 -1.5
v 5 5 -7.5
v 5 5 -8.5
v 5 5 -12.5
v 5 6 11.5
v 5 6 10.5
v 5 6 9.5
v 5 6 8.5
v 5 6 -11.5
v 5 6 -12.5
v 5 6 -13.5
v 5 6 -14.5
v 5 7 10.5
v 5 7 9.5
v 5 7 8.5
v 5 7 7.5
v 5 7 -10.5
v 5 7 -11.5
v 5 7 -12.5
v 5 7 -13.5
v 5 8 9.5
v 5 8 8.5
v 5 8 7.5
v 5 8 6.5
v 5 8 -9.5
v 5 8 -10.5
v 5 8 -11.5
v 5 8 -12.5
v 5 9 8.5
v 5 9 7.5
v 5 9 6.5
v 5 9 5.5
v 5 9 -8.5
v 5 9 -9.5
v 5 9 -10.5
v 5 9 -11.5
v 5 10 7.5
v 5 10 6.5
v 5 10 4.5
v 5 10 -0.5
v 5 10 -1.5
v 5 10 -7.5
v 5 10 -9.5
v 5 10 -10.5
v 5 11 6.5
v 5 11 -9.5
v 7 5 8.5
v 7 5 7.5
v 7 7 8.5
v 7 7 7.5
v -5 0 14.5
v -5 2 14.5
v -5 4 14.5
v -5 5 14.5
v -4 1 14.5
v -4 2 14.5
v -4 4 14.5
v 4 1 14.5
v 4 2 14.5
v 4 4 14.5
v 5 0 14.5
v 5 2 14.5
v 5 4 14.5
v 5 5 14.5
v -5 5 11.5
v -5 6 11.5
v -4 5 11.5
v -4 6 11.5
v 4 5 11.5
v 4 6 11.5
v 5 5 11.5
v 5 6 11.5
v -5 6 10.5
v -5 7 10.5
v -4 6 10.5
v -4 7 10.5
v 4 6 10.5
v 4 7 10.5
v 5 6 10.5
v 5 7 10.5
v -5 7 9.5
v -5 8 9.5
v -4 7 9.5
v -4 8 9.5
v 4 7 9.5
v 4 8 9.5
v 5 7 9.5
v 5 8 9.5
v -7 5 8.5
v -7 7 8.5
v -5 5 8.5
v -5 6 8.5
v -5 7 8.5
v -5 8 8.5
v -5 9 8.5
v -4 8 8.5
v -4 9 8.5
v 4 8 8.5
v 4 9 8.5
v 5 5 8.5
v 5 6 8.5
v 5 7 8.5
v 5 8 8.5
v 5 9 8.5
v 7 5 8.5
v 7 7 8.5
v -5 9 7.5
v -5 10 7.5
v -4 9 7.5
v -4 10 7.5
v 4 9 7.5
v 4 10 7.5
v 5 9 7.5
v 5 10 7.5
v -5 2 6.5
v -5 3 6.5
v -5 10 6.5
v -5 11 6.5
v -4 2 6.5
v -4 3 6.5
v -4 10 6.5
v 4 2 6.5
v 4 3 6.5
v 4 10 6.5
v 5 2 6.5
v 5 3 6.5
v 5 10 6.5
v 5 11 6.5
v -5 0 5.5
v -5 2 5.5
v -4 0 5.5
v -4 2 5.5
v 4 0 5.5
v 4 2 5.5
v 5 0 5.5
v 5 2 5.5
v -5 2 -10.5
v -5 3 -10.5
v -4 2 -10.5
v -4 3 -10.5
v 4 2 -10.5
v 4 3 -10.5
v 5 2 -10.5
v 5 3 -10.5
v -5 0 -11.5
v -5 2 -11.5
v -4 0 -11.5
v -4 2 -11.5
v 4 0 -11.5
v 4 2 -11.5
v 5 0 -11.5
v 5 2 -11.5
v -5 0 10.5
v -5 2 10.5
v -4 0 10.5
v -4 2 10.5
v 4 0 10.5
v 4 2 10.5
v 5 0 10.5
v 5 2 10.5
v -5 2 9.5
v -5 3 9.5
v -4 2 9.5
v -4 3 9.5
v 4 2 9.5
v 4 3 9.5
v 5 2 9.5
v 5 3 9.5
v -7 5 7.5
v -7 7 7.5
v -5 5 7.5
v -5 7 7.5
v 5 5 7.5
v 5 7 7.5
v 7 5 7.5
v 7 7 7.5
v -5 0 -6.5
v -5 2 -6.5
v -4 0 -6.5
v -4 2 -6.5
v 4 0 -6.5
v 4 2 -6.5
v 5 0 -6.5
v 5 2 -6.5
v -5 2 -7.5
v -5 3 -7.5
v -4 2 -7.5
v -4 3 -7.5
v 4 2 -7.5
v 4 3 -7.5
v 5 2 -7.5
v 5 3 -7.5
v -5 10 -9.5
v -5 11 -9.5
v -4 10 -9.5
v 4 10 -9.5
v 5 10 -9.5
v 5 11 -9.5
v -5 9 -10.5
v -5 10 -10.5
v -4 9 -10.5
v -4 10 -10.5
v 4 9 -10.5
v 4 10 -10.5
v 5 9 -10.5
v 5 10 -10.5
v -5 8 -11.5
v -5 9 -11.5
v -4 8 -11.5
v -4 9 -11.5
v 4 8 -11.5
v 4 9 -11.5
v 5 8 -11.5
v 5 9 -11.5
v -5 7 -12.5
v -5 8 -12.5
v -4 7 -12.5
v -4 8 -12.5
v 4 7 -12.5
v 4 8 -12.5
v 5 7 -12.5
v 5 8 -12.5
v -5 6 -13.5
v -5 7 -13.5
v -4 6 -13.5
v -4 7 -13.5
v 4 6 -13.5
v 4 7 -13.5
v 5 6 -13.5
v 5 7 -13.5
v -5 0 -14.5
v -5 1 -14.5
v -5 2 -14.5
v -5 3 -14.5
v -5 4 -14.5
v -5 6 -14.5
v -4 1 -14.5
v -4 2 -14.5
v -4 3 -14.5
v -4 4 -14.5
v -4 5 -14.5
v -4 6 -14.5
v -2 2 -14.5
v -2 3 -14.5
v 2 2 -14.5
v 2 3 -14.5
v 4 1 -14.5
v 4 2 -14.5
v 4 3 -14.5
v 4 4 -14.5
v 4 5 -14.5
v 4 6 -14.5
v 5 0 -14.5
v 5 1 -14.5
v 5 2 -14.5
v 5 3 -14.5
v 5 4 -14.5
v 5 6 -14.5
v -5 0 14.5
v 5 0 14.5
v -5 0 10.5
v -4 0 10.5
v 4 0 10.5
v 5 0 10.5
v -5 0 5.5
v -4 0 5.5
v 4 0 5.5
v 5 0 5.5
v -5 0 -6.5
v -4 0 -6.5
v 4 0 -6.5
v 5 0 -6.5
v -5 0 -11.5
v -4 0 -11.5
v 4 0 -11.5
v 5 0 -11.5
v -5 0 -14.5
v 5 0 -14.5
v -5 2 10.5
v -4 2 10.5
v 4 2 10.5
v 5 2 10.5
v -5 2 9.5
v -4 2 9.5
v 4 2 9.5
v 5 2 9.5
v -5 2 6.5
v -4 2 6.5
v 4 2 6.5
v 5 2 6.5
v -5 2 5.5
v -4 2 5.5
v 4 2 5.5
v 5 2 5.5
v -5 2 -6.5
v -4 2 -6.5
v 4 2 -6.5
v 5 2 -6.5
v -5 2 -7.5
v -4 2 -7.5
v 4 2 -7.5
v 5 2 -7.5
v -5 2 -10.5
v -4 2 -10.5
v 4 2 -10.5
v 5 2 -10.5
v -5 2 -11.5
v -4 2 -11.5
v 4 2 -11.5
v 5 2 -11.5
v -5 3 9.5
v -4 3 9.5
v 4 3 9.5
v 5 3 9.5
v -5 3 6.5
v -4 3 6.5
v 4 3 6.5
v 5 3 6.5
v -5 3 -7.5
v -4 3 -7.5
v 4 3 -7.5
v 5 3 -7.5
v -5 3 -10.5
v -4 3 -10.5
v 4 3 -10.5
v 5 3 -10.5
v -7 5 8.5
v -5 5 8.5
v 5 5 8.5
v 7 5 8.5
v -7 5 7.5
v -5 5 7.5
v 5 5 7.5
v 7 5 7.5
v -5 5 14.5
v 5 5 14.5
v -5 5 11.5
v -4 5 11.5
v 4 5 11.5
v 5 5 11.5
v -5 6 11.5
v -4 6 11.5
v 4 6 11.5
v 5 6 11.5
v -5 6 10.5
v -4 6 10.5
v 4 6 10.5
v 5 6 10.5
v -5 6 -13.5
v -4 6 -13.5
v 4 6 -13.5
v 5 6 -13.5
v -5 6 -14.5
v -4 6 -14.5
v 4 6 -14.5
v 5 6 -14.5
v -5 7 10.5
v -4 7 10.5
v 4 7 10.5
v 5 7 10.5
v -5 7 9.5
v -4 7 9.5
v 4 7 9.5
v 5 7 9.5
v -7 7 8.5
v -5 7 8.5
v 5 7 8.5
v 7 7 8.5
v -7 7 7.5
v -5 7 7.5
v 5 7 7.5
v 7 7 7.5
v -5 7 -12.5
v -4 7 -12.5
v 4 7 -12.5
v 5 7 -12.5
v -5 7 -13.5
v -4 7 -13.5
v 4 7 -13.5
v 5 7 -13.5
v -5 8 9.5
v -4 8 9.5
v 4 8 9.5
v 5 8 9.5
v -5 8 8.5
v -4 8 8.5
v 4 8 8.5
v 5 8 8.5
v -5 8 -11.5
v -4 8 -11.5
v 4 8 -11.5
v 5 8 -11.5
v -5 8 -12.5
v -4 8 -12.5
v 4 8 -12.5
v 5 8 -12.5
v -5 9 8.5
v -4 9 8.5
v 4 9 8.5
v 5 9 8.5
v -5 9 7.5
v -4 9 7.5
v 4 9 7.5
v 5 9 7.5
v -5 9 -10.5
v -4 9 -10.5
v 4 9 -10.5
v 5 9 -10.5
v -5 9 -11.5
v -4 9 -11.5
v 4 9 -11.5
v 5 9 -11.5
v -5 10 7.5
v -4 10 7.5
v 4 10 7.5
v 5 10 7.5
v -5 10 6.5
v -4 10 6.5
v 4 10 6.5
v 5 10 6.5
v -5 10 -9.5
v -4 10 -9.5
v 4 10 -9.5
v 5 10 -9.5
v -5 10 -10.5
v -4 10 -10.5
v 4 10 -10.5
v 5 10 -10.5
v -5 11 6.5
v 5 11 6.5
v -5 11 -9.5
v 5 11 -9.5

# faces
f 3/1/1 2/1/1 1/1/1
f 4/1/1 2/1/1 3/1/1
f 11/1/1 10/1/1 9/1/1
f 12/1/1 10/1/1 11/1/1
f 13/1/1 6/1/1 5/1/1
f 14/1/1 6/1/1 13/1/1
f 15/1/1 6/1/1 14/1/1
f 18/1/1 8/1/1 7/1/1
f 19/1/1 8/1/1 18/1/1
f 22/1/1 11/1/1 9/1/1
f 23/3/1 12/3/1 11/3/1
f 23/1/1 11/1/1 22/1/1
f 24/3/1 12/3/1 23/3/1
f 25/1/1 16/1/1 15/1/1
f 25/1/1 15/1/1 14/1/1
f 26/1/1 20/1/1 19/1/1
f 26/1/1 18/1/1 17/1/1
f 26/1/1 19/1/1 18/1/1
f 27/1/1 20/1/1 26/1/1
f 28/1/1 20/1/1 27/1/1
f 29/1/1 20/1/1 28/1/1
f 30/1/1 20/1/1 29/1/1
f 31/1/1 22/1/1 21/1/1
f 31/1/1 23/1/1 22/1/1
f 32/4/1 24/4/1 23/4/1
f 32/1/1 23/1/1 31/1/1
f 33/4/1 24/4/1 32/4/1
f 34/3/1 14/3/1 13/3/1
f 35/1/1 25/1/1 14/1/1
f 35/3/1 14/3/1 34/3/1
f 35/1/1 26/1/1 25/1/1
f 35/1/1 27/1/1 26/1/1
f 36/6/1 28/6/1 27/6/1
f 36/1/1 27/1/1 35/1/1
f 37/1/1 29/1/1 28/1/1
f 37/6/1 28/6/1 36/6/1
f 38/6/1 30/6/1 29/6/1
f 38/1/1 29/1/1 37/1/1
f 39/1/1 31/1/1 30/1/1
f 39/6/1 30/6/1 38/6/1
f 39/1/1 32/1/1 31/1/1
f 40/2/1 33/2/1 32/2/1
f 40/1/1 32/1/1 39/1/1
f 41/2/1 33/2/1 40/2/1
f 42/1/1 37/1/1 36/1/1
f 42/1/1 38/1/1 37/1/1
f 42/1/1 41/1/1 40/1/1
f 42/1/1 40/1/1 39/1/1
f 42/1/1 35/1/1 34/1/1
f 42/1/1 36/1/1 35/1/1
f 42/1/1 39/1/1 38/1/1
f 43/1/1 41/1/1 42/1/1
f 44/1/1 41/1/1 43/1/1
f 45/1/1 41/1/1 44/1/1
f 46/1/1 41/1/1 45/1/1
f 47/1/1 41/1/1 46/1/1
f 48/1/1 41/1/1 47/1/1
f 49/1/1 41/1/1 48/1/1
f 50/1/1 41/1/1 49/1/1
f 51/1/1 41/1/1 50/1/1
f 52/1/1 41/1/1 51/1/1
f 53/1/1 41/1/1 52/1/1
f 54/1/1 44/1/1 43/1/1
f 55/1/1 44/1/1 54/1/1
f 56/5/1 45/5/1 44/5/1
f 56/1/1 44/1/1 55/1/1
f 57/5/1 45/5/1 56/5/1
f 58/5/1 53/5/1 52/5/1
f 59/1/1 41/1/1 53/1/1
f 59/5/1 53/5/1 58/5/1
f 60/1/1 41/1/1 59/1/1
f 61/1/1 41/1/1 60/1/1
f 62/1/1 57/1/1 56/1/1
f 62/1/1 56/1/1 55/1/1
f 63/1/1 57/1/1 62/1/1
f 64/1/1 57/1/1 63/1/1
f 65/5/1 47/5/1 46/5/1
f 66/5/1 58/5/1 52/5/1
f 67/1/1 60/1/1 59/1/1
f 67/5/1 58/5/1 66/5/1
f 67/1/1 59/1/1 58/1/1
f 68/1/1 60/1/1 67/1/1
f 69/1/1 60/1/1 68/1/1
f 70/1/1 65/1/1 64/1/1
f 70/1/1 64/1/1 63/1/1
f 71/1/1 65/1/1 70/1/1
f 72/5/1 47/5/1 65/5/1
f 72/1/1 65/1/1 71/1/1
f 73/5/1 47/5/1 72/5/1
f 74/5/1 66/5/1 52/5/1
f 75/1/1 68/1/1 67/1/1
f 75/5/1 66/5/1 74/5/1
f 75/1/1 67/1/1 66/1/1
f 76/1/1 68/1/1 75/1/1
f 77/1/1 68/1/1 76/1/1
f 78/1/1 73/1/1 72/1/1
f 78/1/1 72/1/1 71/1/1
f 79/1/1 73/1/1 78/1/1
f 80/5/1 47/5/1 73/5/1
f 80/1/1 73/1/1 79/1/1
f 81/1/1 48/1/1 47/1/1
f 81/5/1 47/5/1 80/5/1
f 82/1/1 52/1/1 51/1/1
f 82/5/1 74/5/1 52/5/1
f 83/1/1 76/1/1 75/1/1
f 83/5/1 74/5/1 82/5/1
f 83/1/1 75/1/1 74/1/1
f 84/1/1 76/1/1 83/1/1
f 85/1/1 76/1/1 84/1/1
f 86/1/1 81/1/1 80/1/1
f 86/1/1 80/1/1 79/1/1
f 87/1/1 81/1/1 86/1/1
f 88/1/1 48/1/1 81/1/1
f 88/1/1 81/1/1 87/1/1
f 88/5/1 49/5/1 48/5/1
f 89/1/1 50/1/1 49/1/1
f 89/5/1 49/5/1 88/5/1
f 90/5/1 51/5/1 50/5/1
f 90/1/1 50/1/1 89/1/1
f 91/1/1 84/1/1 83/1/1
f 91/5/1 51/5/1 90/5/1
f 91/1/1 83/1/1 82/1/1
f 91/1/1 82/1/1 51/1/1
f 92/1/1 84/1/1 91/1/1
f 93/1/1 84/1/1 92/1/1
f 94/1/1 90/1/1 89/1/1
f 94/1/1 92/1/1 91/1/1
f 94/1/1 91/1/1 90/1/1
f 94/1/1 88/1/1 87/1/1
f 94/1/1 89/1/1 88/1/1
f 95/1/1 92/1/1 94/1/1
f 100/1/1 97/1/1 96/1/1
f 101/1/1 97/1/1 100/1/1
f 102/1/1 97/1/1 101/1/1
f 103/1/1 97/1/1 102/1/1
f 104/1/1 99/1/1 98/1/1
f 105/1/1 99/1/1 104/1/1
f 106/1/1 99/1/1 105/1/1
f 107/1/1 99/1/1 106/1/1
f 108/1/1 102/1/1 101/1/1
f 109/1/1 102/1/1 108/1/1
f 110/1/1 106/1/1 105/1/1
f 111/1/1 106/1/1 110/1/1
f 112/1/2 113/1/2 116/1/2
f 116/1/2 113/1/2 117/1/2
f 117/1/2 113/1/2 118/1/2
f 118/1/2 113/1/2 119/1/2
f 114/1/2 115/1/2 120/1/2
f 120/1/2 115/1/2 121/1/2
f 121/1/2 115/1/2 122/1/2
f 122/1/2 115/1/2 123/1/2
f 117/1/2 118/1/2 124/1/2
f 124/1/2 118/1/2 125/1/2
f 121/1/2 122/1/2 126/1/2
f 126/1/2 122/1/2 127/1/2
f 132/1/2 133/1/2 134/1/2
f 134/1/2 133/1/2 135/1/2
f 128/1/2 129/1/2 136/1/2
f 136/1/2 129/1/2 137/1/2
f 137/1/2 129/1/2 138/1/2
f 130/1/2 131/1/2 141/1/2
f 141/1/2 131/1/2 142/1/2
f 132/1/2 134/1/2 145/1/2
f 134/3/2 135/3/2 146/3/2
f 145/1/2 134/1/2 146/1/2
f 146/3/2 135/3/2 147/3/2
f 138/1/2 139/1/2 148/1/2
f 137/1/2 138/1/2 148/1/2
f 142/1/2 143/1/2 149/1/2
f 140/1/2 141/1/2 149/1/2
f 141/1/2 142/1/2 149/1/2
f 149/1/2 143/1/2 150/1/2
f 150/1/2 143/1/2 151/1/2
f 151/1/2 143/1/2 152/1/2
f 152/1/2 143/1/2 153/1/2
f 144/1/2 145/1/2 154/1/2
f 145/1/2 146/1/2 154/1/2
f 146/4/2 147/4/2 155/4/2
f 154/1/2 146/1/2 155/1/2
f 155/4/2 147/4/2 156/4/2
f 136/3/2 137/3/2 157/3/2
f 137/1/2 148/1/2 158/1/2
f 157/3/2 137/3/2 158/3/2
f 148/1/2 149/1/2 158/1/2
f 149/1/2 150/1/2 158/1/2
f 150/6/2 151/6/2 159/6/2
f 158/1/2 150/1/2 159/1/2
f 151/1/2 152/1/2 160/1/2
f 159/6/2 151/6/2 160/6/2
f 152/6/2 153/6/2 161/6/2
f 160/1/2 152/1/2 161/1/2
f 153/1/2 154/1/2 162/1/2
f 161/6/2 153/6/2 162/6/2
f 154/1/2 155/1/2 162/1/2
f 155/2/2 156/2/2 163/2/2
f 162/1/2 155/1/2 163/1/2
f 163/2/2 156/2/2 164/2/2
f 159/1/2 160/1/2 165/1/2
f 160/1/2 161/1/2 165/1/2
f 163/1/2 164/1/2 165/1/2
f 162/1/2 163/1/2 165/1/2
f 157/1/2 158/1/2 165/1/2
f 158/1/2 159/1/2 165/1/2
f 161/1/2 162/1/2 165/1/2
f 165/1/2 164/1/2 166/1/2
f 166/1/2 164/1/2 167/1/2
f 167/1/2 164/1/2 168/1/2
f 168/1/2 164/1/2 169/1/2
f 169/1/2 164/1/2 170/1/2
f 170/1/2 164/1/2 171/1/2
f 171/1/2 164/1/2 172/1/2
f 172/1/2 164/1/2 173/1/2
f 173/1/2 164/1/2 174/1/2
f 174/1/2 164/1/2 175/1/2
f 175/1/2 164/1/2 176/1/2
f 166/1/2 167/1/2 177/1/2
f 177/1/2 167/1/2 178/1/2
f 167/5/2 168/5/2 179/5/2
f 178/1/2 167/1/2 179/1/2
f 179/5/2 168/5/2 180/5/2
f 175/5/2 176/5/2 181/5/2
f 176/1/2 164/1/2 182/1/2
f 181/5/2 176/5/2 182/5/2
f 182/1/2 164/1/2 183/1/2
f 183/1/2 164/1/2 184/1/2
f 179/1/2 180/1/2 185/1/2
f 178/1/2 179/1/2 185/1/2
f 185/1/2 180/1/2 186/1/2
f 186/1/2 180/1/2 187/1/2
f 169/5/2 170/5/2 188/5/2
f 175/5/2 181/5/2 189/5/2
f 182/1/2 183/1/2 190/1/2
f 189/5/2 181/5/2 190/5/2
f 181/1/2 182/1/2 190/1/2
f 190/1/2 183/1/2 191/1/2
f 191/1/2 183/1/2 192/1/2
f 187/1/2 188/1/2 193/1/2
f 186/1/2 187/1/2 193/1/2
f 193/1/2 188/1/2 194/1/2
f 188/5/2 170/5/2 195/5/2
f 194/1/2 188/1/2 195/1/2
f 195/5/2 170/5/2 196/5/2
f 175/5/2 189/5/2 197/5/2
f 190/1/2 191/1/2 198/1/2
f 197/5/2 189/5/2 198/5/2
f 189/1/2 190/1/2 198/1/2
f 198/1/2 191/1/2 199/1/2
f 199/1/2 191/1/2 200/1/2
f 195/1/2 196/1/2 201/1/2
f 194/1/2 195/1/2 201/1/2
f 201/1/2 196/1/2 202/1/2
f 196/5/2 170/5/2 203/5/2
f 202/1/2 196/1/2 203/1/2
f 170/1/2 171/1/2 204/1/2
f 203/5/2 170/5/2 204/5/2
f 174/1/2 175/1/2 205/1/2
f 175/5/2 197/5/2 205/5/2
f 198/1/2 199/1/2 206/1/2
f 205/5/2 197/5/2 206/5/2
f 197/1/2 198/1/2 206/1/2
f 206/1/2 199/1/2 207/1/2
f 207/1/2 199/1/2 208/1/2
f 203/1/2 204/1/2 209/1/2
f 202/1/2 203/1/2 209/1/2
f 209/1/2 204/1/2 210/1/2
f 204/1/2 171/1/2 211/1/2
f 210/1/2 204/1/2 211/1/2
f 171/5/2 172/5/2 211/5/2
f 172/1/2 173/1/2 212/1/2
f 211/5/2 172/5/2 212/5/2
f 173/5/2 174/5/2 213/5/2
f 212/1/2 173/1/2 213/1/2
f 206/1/2 207/1/2 214/1/2
f 213/5/2 174/5/2 214/5/2
f 205/1/2 206/1/2 214/1/2
f 174/1/2 205/1/2 214/1/2
f 214/1/2 207/1/2 215/1/2
f 215/1/2 207/1/2 216/1/2
f 212/1/2 213/1/2 217/1/2
f 214/1/2 215/1/2 217/1/2
f 213/1/2 214/1/2 217/1/2
f 210/1/2 211/1/2 217/1/2
f 211/1/2 212/1/2 217/1/2
f 217/1/2 215/1/2 218/1/2
f 219/1/2 220/1/2 221/1/2
f 221/1/2 220/1/2 222/1/2
f 227/1/3 224/1/3 223/1/3
f 228/3/3 225/3/3 224/3/3
f 228/1/3 224/1/3 227/1/3
f 229/1/3 226/1/3 225/1/3
f 229/3/3 225/3/3 228/3/3
f 230/6/3 228/6/3 227/6/3
f 230/1/3 227/1/3 223/1/3
f 230/6/3 229/6/3 228/6/3
f 231/6/3 229/6/3 230/6/3
f 232/1/3 226/1/3 229/1/3
f 232/6/3 229/6/3 231/6/3
f 233/1/3 231/1/3 230/1/3
f 233/1/3 230/1/3 223/1/3
f 234/3/3 232/3/3 231/3/3
f 234/1/3 231/1/3 233/1/3
f 235/1/3 226/1/3 232/1/3
f 235/3/3 232/3/3 234/3/3
f 236/1/3 226/1/3 235/1/3
f 239/1/3 238/1/3 237/1/3
f 240/1/3 238/1/3 239/1/3
f 241/5/3 240/5/3 239/5/3
f 242/5/3 240/5/3 241/5/3
f 243/1/3 242/1/3 241/1/3
f 244/1/3 242/1/3 243/1/3
f 247/1/3 246/1/3 245/1/3
f 248/1/3 246/1/3 247/1/3
f 249/5/3 248/5/3 247/5/3
f 250/5/3 248/5/3 249/5/3
f 251/1/3 250/1/3 249/1/3
f 252/1/3 250/1/3 251/1/3
f 255/1/3 254/1/3 253/1/3
f 256/1/3 254/1/3 255/1/3
f 257/5/3 256/5/3 255/5/3
f 258/5/3 256/5/3 257/5/3
f 259/1/3 258/1/3 257/1/3
f 260/1/3 258/1/3 259/1/3
f 263/1/3 262/1/3 261/1/3
f 264/1/3 262/1/3 263/1/3
f 265/1/3 262/1/3 264/1/3
f 268/1/3 267/1/3 266/1/3
f 269/1/3 267/1/3 268/1/3
f 270/5/3 269/5/3 268/5/3
f 271/5/3 269/5/3 270/5/3
f 275/1/3 271/1/3 270/1/3
f 276/1/3 271/1/3 275/1/3
f 277/1/3 274/1/3 273/1/3
f 277/1/3 273/1/3 272/1/3
f 278/1/3 274/1/3 277/1/3
f 281/1/3 280/1/3 279/1/3
f 282/1/3 280/1/3 281/1/3
f 283/5/3 282/5/3 281/5/3
f 284/5/3 282/5/3 283/5/3
f 285/1/3 284/1/3 283/1/3
f 286/1/3 284/1/3 285/1/3
f 291/1/3 288/1/3 287/1/3
f 292/1/3 288/1/3 291/1/3
f 293/1/3 290/1/3 289/1/3
f 296/1/3 290/1/3 293/1/3
f 297/1/3 295/1/3 294/1/3
f 298/1/3 295/1/3 297/1/3
f 299/1/3 290/1/3 296/1/3
f 300/1/3 290/1/3 299/1/3
f 303/1/3 302/1/3 301/1/3
f 304/1/3 302/1/3 303/1/3
f 307/1/3 306/1/3 305/1/3
f 308/1/3 306/1/3 307/1/3
f 311/1/3 310/1/3 309/1/3
f 312/1/3 310/1/3 311/1/3
f 315/1/3 314/1/3 313/1/3
f 316/1/3 314/1/3 315/1/3
f 319/1/3 318/1/3 317/1/3
f 320/1/3 318/1/3 319/1/3
f 323/1/3 322/1/3 321/1/3
f 324/1/3 322/1/3 323/1/3
f 325/1/4 326/1/4 327/1/4
f 327/1/4 326/1/4 328/1/4
f 329/1/4 330/1/4 331/1/4
f 331/1/4 330/1/4 332/1/4
f 333/1/4 334/1/4 335/1/4
f 335/1/4 334/1/4 336/1/4
f 337/1/4 338/1/4 339/1/4
f 339/1/4 338/1/4 340/1/4
f 341/1/4 342/1/4 343/1/4
f 343/1/4 342/1/4 344/1/4
f 345/1/4 346/1/4 347/1/4
f 347/1/4 346/1/4 348/1/4
f 349/1/4 350/1/4 351/1/4
f 351/1/4 350/1/4 352/1/4
f 353/1/4 354/1/4 355/1/4
f 355/1/4 354/1/4 356/1/4
f 357/1/4 358/1/4 359/1/4
f 359/1/4 358/1/4 360/1/4
f 361/1/4 362/1/4 363/1/4
f 363/1/4 362/1/4 364/1/4
f 365/1/4 366/1/4 367/1/4
f 367/1/4 366/1/4 368/1/4
f 368/1/4 366/1/4 369/1/4
f 369/1/4 366/1/4 370/1/4
f 371/1/4 372/1/4 373/1/4
f 373/1/4 372/1/4 374/1/4
f 373/5/4 374/5/4 375/5/4
f 375/5/4 374/5/4 376/5/4
f 375/1/4 376/1/4 377/1/4
f 377/1/4 376/1/4 378/1/4
f 379/1/4 380/1/4 381/1/4
f 381/1/4 380/1/4 382/1/4
f 381/5/4 382/5/4 383/5/4
f 383/5/4 382/5/4 384/5/4
f 383/1/4 384/1/4 385/1/4
f 385/1/4 384/1/4 386/1/4
f 387/1/4 388/1/4 389/1/4
f 389/1/4 388/1/4 390/1/4
f 389/5/4 390/5/4 391/5/4
f 391/5/4 390/5/4 392/5/4
f 391/1/4 392/1/4 393/1/4
f 393/1/4 392/1/4 394/1/4
f 395/1/4 396/1/4 397/1/4
f 397/1/4 396/1/4 398/1/4
f 397/5/4 398/5/4 399/5/4
f 399/5/4 398/5/4 400/5/4
f 399/1/4 400/1/4 401/1/4
f 401/1/4 400/1/4 402/1/4
f 403/1/4 404/1/4 409/1/4
f 404/3/4 405/3/4 409/3/4
f 405/4/4 406/4/4 410/4/4
f 409/3/4 405/3/4 410/3/4
f 406/2/4 407/2/4 411/2/4
f 410/4/4 406/4/4 411/4/4
f 407/1/4 408/1/4 412/1/4
f 411/2/4 407/2/4 412/2/4
f 412/1/4 408/1/4 413/1/4
f 413/1/4 408/1/4 414/1/4
f 410/1/4 411/1/4 415/1/4
f 409/1/4 410/1/4 415/1/4
f 411/1/4 412/1/4 415/1/4
f 412/1/4 413/1/4 415/1/4
f 415/1/4 413/1/4 416/1/4
f 409/1/4 415/1/4 417/1/4
f 415/6/4 416/6/4 417/6/4
f 416/1/4 413/1/4 418/1/4
f 417/6/4 416/6/4 418/6/4
f 403/1/4 409/1/4 419/1/4
f 409/1/4 417/1/4 419/1/4
f 417/1/4 418/1/4 419/1/4
f 419/1/4 418/1/4 420/1/4
f 418/1/4 413/1/4 421/1/4
f 420/1/4 418/1/4 421/1/4
f 421/1/4 413/1/4 422/1/4
f 413/5/4 414/5/4 423/5/4
f 422/1/4 413/1/4 423/1/4
f 423/5/4 414/5/4 424/5/4
f 403/1/4 419/1/4 425/1/4
f 419/3/4 420/3/4 426/3/4
f 425/1/4 419/1/4 426/1/4
f 420/4/4 421/4/4 427/4/4
f 426/3/4 420/3/4 427/3/4
f 421/2/4 422/2/4 428/2/4
f 427/4/4 421/4/4 428/4/4
f 422/1/4 423/1/4 429/1/4
f 428/2/4 422/2/4 429/2/4
f 423/1/4 424/1/4 429/1/4
f 429/1/4 424/1/4 430/1/4
f 433/1/5 432/1/5 431/1/5
f 434/1/5 432/1/5 433/1/5
f 435/1/5 432/1/5 434/1/5
f 436/1/5 432/1/5 435/1/5
f 438/1/5 435/1/5 434/1/5
f 439/1/5 435/1/5 438/1/5
f 441/1/5 438/1/5 437/1/5
f 441/1/5 440/1/5 439/1/5
f 441/1/5 439/1/5 438/1/5
f 442/1/5 440/1/5 441/1/5
f 443/1/5 440/1/5 442/1/5
f 444/1/5 440/1/5 443/1/5
f 446/1/5 443/1/5 442/1/5
f 447/1/5 443/1/5 446/1/5
f 449/1/5 446/1/5 445/1/5
f 449/1/5 448/1/5 447/1/5
f 449/1/5 447/1/5 446/1/5
f 450/1/5 448/1/5 449/1/5
f 455/1/5 452/1/5 451/1/5
f 456/1/5 452/1/5 455/1/5
f 457/1/5 454/1/5 453/1/5
f 458/1/5 454/1/5 457/1/5
f 463/1/5 460/1/5 459/1/5
f 464/1/5 460/1/5 463/1/5
f 465/1/5 462/1/5 461/1/5
f 466/1/5 462/1/5 465/1/5
f 471/1/5 468/1/5 467/1/5
f 472/1/5 468/1/5 471/1/5
f 473/1/5 470/1/5 469/1/5
f 474/1/5 470/1/5 473/1/5
f 479/1/5 476/1/5 475/1/5
f 480/1/5 476/1/5 479/1/5
f 481/1/5 478/1/5 477/1/5
f 482/1/5 478/1/5 481/1/5
f 487/1/5 484/1/5 483/1/5
f 488/1/5 484/1/5 487/1/5
f 489/1/5 486/1/5 485/1/5
f 490/1/5 486/1/5 489/1/5
f 495/1/5 492/1/5 491/1/5
f 496/1/5 492/1/5 495/1/5
f 497/1/5 494/1/5 493/1/5
f 498/1/5 494/1/5 497/1/5
f 503/1/5 500/1/5 499/1/5
f 504/1/5 500/1/5 503/1/5
f 505/1/5 502/1/5 501/1/5
f 506/1/5 502/1/5 505/1/5
f 507/1/6 508/1/6 509/1/6
f 509/1/6 508/1/6 510/1/6
f 510/1/6 508/1/6 511/1/6
f 511/1/6 508/1/6 512/1/6
f 513/1/6 514/1/6 517/1/6
f 514/5/6 515/5/6 518/5/6
f 517/1/6 514/1/6 518/1/6
f 515/1/6 516/1/6 519/1/6
f 518/5/6 515/5/6 519/5/6
f 519/1/6 516/1/6 520/1/6
f 521/1/6 522/1/6 525/1/6
f 522/5/6 523/5/6 526/5/6
f 525/1/6 522/1/6 526/1/6
f 523/1/6 524/1/6 527/1/6
f 526/5/6 523/5/6 527/5/6
f 527/1/6 524/1/6 528/1/6
f 529/1/6 530/1/6 533/1/6
f 530/5/6 531/5/6 534/5/6
f 533/1/6 530/1/6 534/1/6
f 531/1/6 532/1/6 535/1/6
f 534/5/6 531/5/6 535/5/6
f 535/1/6 532/1/6 536/1/6
f 537/1/6 538/1/6 541/1/6
f 541/1/6 538/1/6 542/1/6
f 539/1/6 540/1/6 543/1/6
f 543/1/6 540/1/6 544/1/6
f 545/1/6 546/1/6 549/1/6
f 546/5/6 547/5/6 550/5/6
f 549/1/6 546/1/6 550/1/6
f 547/1/6 548/1/6 551/1/6
f 550/5/6 547/5/6 551/5/6
f 551/1/6 548/1/6 552/1/6
f 553/1/6 554/1/6 557/1/6
f 554/5/6 555/5/6 558/5/6
f 557/1/6 554/1/6 558/1/6
f 555/1/6 556/1/6 559/1/6
f 558/5/6 555/5/6 559/5/6
f 559/1/6 556/1/6 560/1/6
f 561/1/6 562/1/6 565/1/6
f 562/5/6 563/5/6 566/5/6
f 565/1/6 562/1/6 566/1/6
f 563/1/6 564/1/6 567/1/6
f 566/5/6 563/5/6 567/5/6
f 567/1/6 564/1/6 568/1/6
f 569/1/6 570/1/6 573/1/6
f 570/5/6 571/5/6 574/5/6
f 573/1/6 570/1/6 574/1/6
f 571/1/6 572/1/6 575/1/6
f 574/5/6 571/5/6 575/5/6
f 575/1/6 572/1/6 576/1/6
f 577/1/6 578/1/6 581/1/6
f 578/5/6 579/5/6 582/5/6
f 581/1/6 578/1/6 582/1/6
f 579/1/6 580/1/6 583/1/6
f 582/5/6 579/5/6 583/5/6
f 583/1/6 580/1/6 584/1/6
f 585/1/6 586/1/6 589/1/6
f 586/5/6 587/5/6 590/5/6
f 589/1/6 586/1/6 590/1/6
f 587/1/6 588/1/6 591/1/6
f 590/5/6 587/5/6 591/5/6
f 591/1/6 588/1/6 592/1/6
f 593/1/6 594/1/6 597/1/6
f 594/5/6 595/5/6 598/5/6
f 597/1/6 594/1/6 598/1/6
f 595/1/6 596/1/6 599/1/6
f 598/5/6 595/5/6 599/5/6
f 599/1/6 596/1/6 600/1/6
f 601/1/6 602/1/6 603/1/6
f 603/1/6 602/1/6 604/1/6
